Coordinates
version=1
nRows=29
nColumns=24
inDegrees=yes

Units are S.I. units (second, meters, Newtons, ...)
Angles are in degrees.

endheader
time	pelvis_tilt	pelvis_list	pelvis_rotation	pelvis_tx	pelvis_ty	pelvis_tz	hip_flexion_r	hip_adduction_r	hip_rotation_r	knee_angle_r	ankle_angle_r	subtalar_angle_r	mtp_angle_r	hip_flexion_l	hip_adduction_l	hip_rotation_l	knee_angle_l	ankle_angle_l	subtalar_angle_l	mtp_angle_l	lumbar_extension	lumbar_bending	lumbar_rotation
      3.95000000	    -14.21861596	     -1.64296393	      7.09604907	      1.95079718	     -0.02688116	     -0.47471659	     36.68411565	     -2.25493927	     -9.45817537	     -4.14737979	     -8.15107491	      5.13496379	     13.51738452	     -1.86667740	      1.39357229	     -1.56465727	    -11.28368443	      2.49222262	     17.32411673	     15.13168764	     12.85045248	     -0.84402250	     -7.94598813
      3.95500000	    -14.27188698	     -1.63695990	      7.28009176	      1.95689150	     -0.02769778	     -0.47472201	     36.81282949	     -2.34018844	     -9.82053472	     -4.56772658	     -8.05928347	      4.88976525	     13.47142028	     -1.98280609	      1.29225056	     -1.50446489	    -11.59984190	      2.33886397	     17.73935537	     15.30044584	     12.92541398	     -0.85722559	     -8.09574208
      3.96000000	    -14.33680458	     -1.64937194	      7.45397632	      1.96307314	     -0.02855412	     -0.47472268	     36.96052402	     -2.40975092	    -10.18411341	     -5.07109305	     -7.99555162	      4.65175315	     13.42437720	     -2.07267181	      1.16320408	     -1.51252116	    -11.94273064	      2.19352477	     18.25000177	     15.52935760	     13.02350228	     -0.84671223	     -8.22703153
      3.96500000	    -14.41840193	     -1.68362277	      7.58569945	      1.96938162	     -0.02946256	     -0.47468662	     37.12723990	     -2.43863149	    -10.50341671	     -5.63574642	     -7.96547514	      4.41323348	     13.33822149	     -2.13972810	      1.00184442	     -1.66457141	    -12.29537818	      2.02813008	     18.86607495	     15.89657044	     13.15772657	     -0.79778076	     -8.29759515
      3.97000000	    -14.45033183	     -1.65452665	      7.77800711	      1.97561160	     -0.03030029	     -0.47472905	     37.22399943	     -2.56155806	    -10.73271758	     -6.23151250	     -7.97768772	      4.12249533	     13.29664238	     -2.25636643	      0.91101196	     -1.62858129	    -12.66011779	      1.81826132	     19.33972989	     16.09396765	     13.21133216	     -0.82609135	     -8.45949913
      3.97500000	    -14.51515936	     -1.68977350	      7.96805352	      1.98196758	     -0.03116956	     -0.47475623	     37.33615815	     -2.62498703	    -10.96577097	     -6.82583340	     -8.08758632	      3.81041608	     13.23543243	     -2.30945535	      0.73832862	     -1.70073047	    -13.06376538	      1.61782285	     19.96444249	     16.39867064	     13.32497266	     -0.79114172	     -8.61739868
      3.98000000	    -14.56939238	     -1.73057921	      8.12566162	      1.98835614	     -0.03201918	     -0.47472747	     37.42667364	     -2.65821335	    -11.13176936	     -7.41675362	     -8.30050120	      3.48739928	     13.17137532	     -2.36204699	      0.55057698	     -1.81803544	    -13.48823523	      1.38242102	     20.61561937	     16.73992665	     13.42875946	     -0.74244683	     -8.74990164
      3.98500000	    -14.62492568	     -1.82857642	      8.20704564	      1.99491061	     -0.03285893	     -0.47462330	     37.49933801	     -2.58208456	    -11.21783376	     -7.96971612	     -8.65629606	      3.08527707	     13.10201076	     -2.41475807	      0.28977471	     -2.10723718	    -13.90247827	      1.08513826	     21.32897812	     17.24748127	     13.56444315	     -0.60511972	     -8.79672271
      3.99000000	    -14.64995938	     -1.89093769	      8.39944914	      2.00123503	     -0.03358293	     -0.47468216	     37.52888505	     -2.61577804	    -11.31681960	     -8.51567228	     -9.11334764	      2.76182956	     13.04390477	     -2.45379790	      0.07519391	     -2.13238797	    -14.38015667	      0.78956942	     21.91298677	     17.53664332	     13.62182488	     -0.52805728	     -8.98553762
      3.99500000	    -14.66441744	     -2.03601422	      8.42844467	      2.00775147	     -0.03426278	     -0.47448690	     37.53278371	     -2.44692489	    -11.26117947	     -8.98053783	     -9.79891537	      2.27003638	     13.05870328	     -2.50666355	     -0.25988570	     -2.51003647	    -14.84436533	      0.40779477	     22.70278349	     18.13212860	     13.70465240	     -0.32055329	     -8.99037075
      4.00000000	    -14.68245490	     -2.21414092	      8.53125756	      2.01419219	     -0.03483170	     -0.47442409	     37.52357175	     -2.30154598	    -11.26138092	     -9.41098939	    -10.56982362	      1.83014051	     13.07801568	     -2.51042906	     -0.62233962	     -2.71284060	    -15.36361714	      0.00816358	     23.38440418	     18.57328273	     13.78525605	     -0.09825936	     -9.10351445
      4.00500000	    -14.68913544	     -2.43243237	      8.60585838	      2.02059405	     -0.03531071	     -0.47433049	     37.51608463	     -2.09783395	    -11.22903837	     -9.84460449	    -11.41262448	      1.33770005	     13.10016439	     -2.49557761	     -1.03358040	     -2.94821002	    -15.92104001	     -0.42207868	     24.05746468	     18.99421778	     13.85142483	      0.17785783	     -9.20940996
      4.01000000	    -14.68365295	     -2.70526732	      8.61811500	      2.02705860	     -0.03568285	     -0.47420546	     37.48697824	     -1.79934764	    -11.10752248	    -10.24226210	    -12.30967122	      0.79152324	     13.14004526	     -2.48097386	     -1.50705644	     -3.24436927	    -16.48911721	     -0.92808639	     24.69340022	     19.47047751	     13.92114208	      0.53879201	     -9.25384317
      4.01500000	    -14.71912452	     -3.03088448	      8.69783554	      2.03346954	     -0.03598146	     -0.47421478	     37.51593846	     -1.51453955	    -11.09873461	    -10.68692358	    -13.11487961	      0.36329243	     13.04210400	     -2.36127517	     -2.02360991	     -3.37859354	    -17.14354446	     -1.41283836	     25.25320019	     19.72393310	     14.04045478	      0.93194506	     -9.41816306
      4.02000000	    -14.71352784	     -3.36840672	      8.69694702	      2.03989225	     -0.03616970	     -0.47405734	     37.50723906	     -1.13983929	    -10.88349372	    -11.13477034	    -13.89712341	     -0.27913610	     12.90996189	     -2.26232068	     -2.58769066	     -3.75338502	    -17.83291286	     -2.00169747	     25.98523155	     20.11553467	     14.11456282	      1.36033330	     -9.46952134
      4.02500000	    -14.68281330	     -3.70202415	      8.67638823	      2.04630335	     -0.03625340	     -0.47389420	     37.48735994	     -0.75015131	    -10.60575133	    -11.63457696	    -14.55475801	     -0.94821596	     12.71064555	     -2.16868038	     -3.15383735	     -4.15665989	    -18.54937527	     -2.70391528	     26.64914156	     20.54367790	     14.15899904	      1.79796794	     -9.49398932
      4.03000000	    -14.60392732	     -3.98066875	      8.60915337	      2.05265255	     -0.03622555	     -0.47360593	     37.44487482	     -0.36189701	    -10.19716729	    -12.21586088	    -15.05382340	     -1.67547159	     12.34349211	     -2.12186777	     -3.68439822	     -4.66626445	    -19.26368507	     -3.57601094	     27.33091096	     21.14411986	     14.12655905	      2.19564591	     -9.46540307
      4.03500000	    -14.56513558	     -4.31507810	      8.57839186	      2.05905408	     -0.03617577	     -0.47342923	     37.44893683	      0.03704195	     -9.88959333	    -12.83186749	    -15.39161188	     -2.28755842	     11.90276245	     -1.97151148	     -4.27421658	     -5.14269754	    -20.06870806	     -4.48146722	     27.97897140	     21.66399596	     14.16078499	      2.63867599	     -9.50715625
      4.04000000	    -14.55242119	     -4.68481420	      8.53926384	      2.06553414	     -0.03612239	     -0.47332354	     37.48457970	      0.45613485	     -9.66625700	    -13.46924483	    -15.59057195	     -2.79352412	     11.55600906	     -1.75147530	     -4.90360393	     -5.64513696	    -20.95442915	     -5.41481107	     28.58887186	     22.05844734	     14.24496170	      3.12743423	     -9.54402276
      4.04500000	    -14.43702300	     -4.92754050	      8.45072064	      2.07184592	     -0.03586666	     -0.47298140	     37.43149200	      0.83618939	     -9.21746820	    -14.19950563	    -15.50567572	     -3.29925378	     10.41330317	     -1.65281280	     -5.43891632	     -6.28479772	    -21.75777540	     -6.78017280	     29.13120232	     23.15383348	     14.15860462	      3.49767785	     -9.47678015
      4.05000000	    -14.41725187	     -5.20871338	      8.36062204	      2.07827569	     -0.03571810	     -0.47268463	     37.46201416	      1.22400036	     -8.88743214	    -14.87174667	    -15.46324978	     -3.84030538	     10.03664802	     -1.38530999	     -6.02024190	     -6.96782217	    -22.73509316	     -8.00229998	     29.76007380	     23.62480299	     14.20861415	      3.89511895	     -9.45747837
      4.05500000	    -14.37031487	     -5.44281242	      8.29418508	      2.08460866	     -0.03548573	     -0.47236005	     37.45872495	      1.55245056	     -8.62329729	    -15.55795568	    -15.25177583	     -4.20462194	      9.57435169	     -1.10496188	     -6.58021094	     -7.67716872	    -23.72841222	     -9.48953855	     30.36219941	     24.46700494	     14.20486239	      4.23380103	     -9.45155918
      4.06000000	    -14.34693164	     -5.67185073	      8.20923618	      2.09098067	     -0.03526293	     -0.47200532	     37.47130674	      1.87678816	     -8.46950191	    -16.23372055	    -14.95609358	     -4.49344612	      9.25156893	     -0.76595561	     -7.14947158	     -8.42934289	    -24.77905400	    -11.08402267	     30.89312756	     25.26806373	     14.23469124	      4.56775805	     -9.41562095
      4.06500000	    -14.32774902	     -5.86545099	      8.12292448	      2.09730530	     -0.03500333	     -0.47160750	     37.46768352	      2.16416906	     -8.35606249	    -16.88126921	    -14.58143944	     -4.66256862	      9.01976979	     -0.38605769	     -7.70010068	     -9.18820811	    -25.86594035	    -12.85853362	     31.36369036	     26.15052117	     14.25623730	      4.85712775	     -9.37848219
      4.07000000	    -14.31409143	     -6.02602512	      8.04127014	      2.10353230	     -0.03472032	     -0.47116296	     37.45062382	      2.41540762	     -8.27075931	    -17.49671325	    -14.15274468	     -4.73492046	      8.85777156	      0.04550851	     -8.23192646	     -9.92456262	    -26.99761070	    -14.79197538	     31.75092901	     27.11071238	     14.26431257	      5.10343373	     -9.33900591
      4.07500000	    -14.30323132	     -6.18390762	      7.94993402	      2.10968452	     -0.03441696	     -0.47070813	     37.41411630	      2.66223461	     -8.23223403	    -18.06738015	    -13.69384706	     -4.67832390	      8.75013919	      0.52453706	     -8.77021011	    -10.64337101	    -28.17864904	    -16.84200809	     31.97932155	     28.08434987	     14.26346377	      5.34980776	     -9.28794550
      4.08000000	    -14.31983137	     -6.33342451	      7.86888837	      2.11577081	     -0.03413111	     -0.47018323	     37.38457473	      2.89452549	     -8.22811530	    -18.59368418	    -13.22727658	     -4.59062289	      8.73996680	      1.08230710	     -9.31057781	    -11.28297909	    -29.41700341	    -18.94454729	     32.17515927	     28.93966118	     14.28432327	      5.56465900	     -9.25089591
      4.08500000	    -14.34854099	     -6.48874505	      7.78566849	      2.12183381	     -0.03385406	     -0.46965399	     37.34156921	      3.12908890	     -8.26527689	    -19.07375428	    -12.73259975	     -4.43341402	      8.77350460	      1.68675802	     -9.85584192	    -11.85167779	    -30.68198295	    -21.10909146	     32.23413127	     29.76639221	     14.31959774	      5.78471525	     -9.21374799
      4.09000000	    -14.39157406	     -6.66270746	      7.70744137	      2.12790832	     -0.03358282	     -0.46913178	     37.28075632	      3.37710977	     -8.33888766	    -19.49590560	    -12.22367589	     -4.24374242	      8.83077281	      2.34111140	    -10.41078876	    -12.30979062	    -31.97644332	    -23.26882132	     32.16273077	     30.46617947	     14.38122360	      6.01387045	     -9.17794459
